<?xml version="1.0" encoding="utf-8"?>
<!-- Svg Vector Icons : http://www.onlinewebfonts.com/icon -->
<!DOCTYPE svg PUBLIC "-//W3C//DTD SVG 1.1//EN" "http://www.w3.org/Graphics/SVG/1.1/DTD/svg11.dtd">
<svg version="1.1" xmlns="http://www.w3.org/2000/svg" x="0px" y="0px"
     fill="#3DDC84"
     viewBox="0 0 1000 1000" enable-background="new 0 0 1000 1000" xml:space="preserve">
    <g><g transform="translate(0.000000,511.000000) scale(0.100000,-0.100000)">
        <path
                d="M5645.7,4997.2c-63.5-9.6-240.6-25-394.6-34.6c-240.7-13.5-300.3-25-429.3-75.1c-369.6-144.4-610.3-383.1-587.2-581.4c5.8-40.4-7.7-52-102-90.5c-59.7-23.1-173.3-50-250.3-55.8l-142.5-13.5l77-23.1l77-21.2l-77-21.2c-71.2-19.3-73.1-21.2-19.3-23.1c82.8-1.9,277.2,46.2,402.3,102l107.8,48.1l90.5-42.3c80.9-36.6,125.1-42.4,352.3-42.4c215.6,0,283,7.7,398.5,44.3c150.2,46.2,281.1,134.8,342.7,229.1c46.2,69.3,78.9,77,442.8,94.3c412,19.2,714.2-52,893.3-215.6c219.5-196.4,309.9-546.7,309.9-1183.9c0-381.2-23.1-521.7-119.4-745c-206-475.5-608.3-835.5-1372.6-1228.2l-269.5-138.6l-5.8-281.1c-1.9-154,0-281.1,5.8-281.1c7.7,0,117.4,48.1,246.4,107.8c1320.6,610.2,1927.1,1276.3,2036.8,2233.1c42.4,377.3-15.4,1010.7-119.3,1326.4c-80.9,242.6-154,361.9-333.1,541c-281.1,279.1-552.5,373.5-1108.9,383.1C5913.3,5012.7,5709.3,5006.9,5645.7,4997.2z M4785.2,4679.6c53.9-36.6,53.9-55.8-5.8-113.6c-92.4-94.3-242.6-36.6-169.4,65.5c25,36.6,82.8,73.2,121.3,77C4737.1,4710.4,4762.1,4696.9,4785.2,4679.6z"/>
        <path
                d="M1714.6,3572.7c-80.8-23.1-96.3-82.8-53.9-213.7c232.9-712.3,827.8-1262.9,1665.2-1542c367.7-123.2,706.5-182.9,1314.8-236.8l129-11.6V425.1V-718.4h82.8c46.2,0,150.2-5.8,231-11.6l148.2-13.5v1157v1155.1l150.2,13.5c490.9,40.4,885.5,102,983.8,154c65.4,32.7,306.1,283,385,400.4c96.3,140.5,186.7,352.3,223.3,519.8c27,119.4,30.8,221.4,25,519.8c-3.9,202.1-13.5,381.2-21.2,394.6c-13.5,17.3-554.4,23.1-2608.5,21.2C2823.5,3591.9,1751.2,3582.3,1714.6,3572.7z"/>
        <path
                d="M7803.8,3253.1c11.6-311.9,0-506.3-42.3-760.4l-9.6-63.5l88.5,96.3c223.3,242.6,383.1,502.5,481.3,783.5c88.5,252.2,52,284.9-311.9,284.9h-219.5L7803.8,3253.1z"/>
        <path
                d="M4352,515.6c-444.7-223.3-696.9-425.4-806.6-650.7c-77-154-86.6-369.6-26.9-529.4c77-209.8,296.5-398.5,589.1-508.2c231-86.6,438.9-123.2,825.9-142.5c387-19.2,583.3-48.1,766.2-113.6c346.5-121.3,462-300.3,310-481.3c-65.5-78.9-321.5-204.1-498.6-242.6l-144.4-32.7v-202.1v-202.1l82.8,13.5c477.4,73.1,854.8,288.8,989.5,566c46.2,90.5,53.9,132.8,52,261.8c0,127.1-9.6,173.3-52,263.7c-71.2,146.3-252.2,313.8-440.9,406.2C5724.7-945.5,5532.1-909,4846.8-853.1c-386.9,28.9-700.7,136.7-829.7,283c-144.4,167.5-5.8,348.4,440.8,573.7L4635,92.1v269.5c0,219.5-5.8,267.6-27,267.6C4592.7,629.2,4477.2,577.2,4352,515.6z"/>
        <path
                d="M4769.8-2435.6V-3427l59.7-13.5c32.7-5.8,136.7-11.5,231-11.5h171.3v991.4v991.4h-142.5c-77,0-181,5.8-231,11.5l-88.6,13.5V-2435.6z"/>
        <path
                d="M4375.2-2297c-298.4-78.9-494.8-179-643-327.3c-127.1-127-182.9-246.4-190.6-413.9c-17.3-338.8,206-587.2,664.2-741.2c288.8-96.3,512.1-121.3,968.3-107.8c539,13.5,850.9,63.5,879.8,138.6c36.6,98.2-227.2,150.2-941.4,181c-425.4,17.3-592.9,42.4-808.6,121.3c-263.7,94.3-400.4,223.3-400.4,371.5c0,171.3,190.6,311.9,546.7,402.4l175.2,44.3l5.8,184.8l5.8,184.8l-63.5-1.9C4538.8-2260.4,4450.2-2277.7,4375.2-2297z"/>
        <path
                d="M4764-4098.9c-11.6-109.7-63.5-182.9-150.2-213.7c-46.2-15.4-265.7-23.1-725.8-23.1c-727.7-1.9-745-3.8-804.7-121.3c-46.2-86.6-25-198.3,48.1-273.4l59.7-59.7h1809.6h1809.6l59.7,59.7c73.2,75.1,94.3,186.7,48.1,273.4c-59.7,117.4-75.1,119.4-814.3,119.4c-598.7,0-677.6,3.8-737.3,34.6c-77,36.6-134.8,136.7-134.8,231v61.6h-229.1h-227.2L4764-4098.9z"/></g></g>
</svg>